<svg width="42" height="42" viewBox="0 0 42 42" fill="none" xmlns="http://www.w3.org/2000/svg">
<circle cx="21" cy="21" r="20.5" fill="white" stroke="black"/>
<path d="M23 10C20.8783 10 18.8435 10.8429 17.3432 12.3431C15.8429 13.8434 15 15.8783 15 18V20H22V24H16.41L11.71 19.29L10.29 20.71L15.59 26H16.39L15.39 28H11V30H31V28H30.62L29.62 26H31V24H24V20H31V18C31 15.8783 30.1572 13.8434 28.6569 12.3431C27.1566 10.8429 25.1218 10 23 10ZM17.62 28L18.62 26H22V28H17.62ZM27.38 26L28.38 28H24V26H27.38ZM17 18C17 16.4087 17.6322 14.8826 18.7574 13.7574C19.8826 12.6321 21.4087 12 23 12C24.5913 12 26.1175 12.6321 27.2427 13.7574C28.3679 14.8826 29 16.4087 29 18H17Z" fill="black"/>
</svg>
