<svg width="680" height="143" viewBox="0 0 680 143" fill="none" xmlns="http://www.w3.org/2000/svg">
<path d="M416.134 49.7265H402.946L344.353 139.554H432.885L484.121 35.8238V0H327.968V42.4939H416.134V49.7265Z" fill="black"/>
<path d="M254.82 95.9617C254.82 102.176 249.784 107.212 243.57 107.212C237.355 107.212 232.319 102.176 232.319 95.9617C232.319 94.4437 232.622 92.9972 233.167 91.6667H165.591C165.52 93.0508 165.484 94.4794 165.484 95.9617C165.484 142.215 200.058 142.474 242.846 142.474H243.578C286.367 142.474 320.941 142.206 320.941 95.9617C320.941 49.7175 286.367 49.4497 243.578 49.4497H242.846C235.23 49.4497 227.881 49.4586 220.934 49.7354V42.4939H320.941V0H164.752V84.702H243.578C249.793 84.702 254.829 89.738 254.829 95.9527L254.82 95.9617Z" fill="black"/>
<path d="M680 69.7546C680 0 627.568 0 562.894 0H491.148V139.5H562.894C627.568 139.5 680 139.5 680 69.7456V69.7546ZM565.01 62.5845V55.3429H593.825C601.781 55.3429 608.227 61.7898 608.227 69.7456C608.227 77.7015 601.781 84.1484 593.825 84.1484H565.01V62.5755V62.5845Z" fill="black"/>
<path d="M78.0855 142.474C120.874 142.474 155.448 142.206 155.448 95.9617C155.448 70.6564 145.099 59.1199 128.714 53.8607L157.725 35.8327V0H1.5626V42.4939H83.2197V49.7354H47.2085V84.7109H78.0855C84.3002 84.7109 89.3362 89.747 89.3362 95.9617C89.3362 102.176 84.3002 107.212 78.0855 107.212C71.8708 107.212 66.8348 102.176 66.8348 95.9617C66.8348 94.4437 67.1383 92.9972 67.683 91.6667H0.116079C0.0446459 93.0597 0 94.4794 0 95.9617C0 142.474 34.9666 142.474 78.0944 142.474H78.0855Z" fill="black"/>
</svg>
