<svg width="14" height="16" viewBox="0 0 14 16" fill="none" xmlns="http://www.w3.org/2000/svg">
<path fill-rule="evenodd" clip-rule="evenodd" d="M7.82094 0.9762C8.24227 0.470877 9.06292 0.816203 8.99625 1.47086L8.52559 6.06943H12.3328C12.4595 6.06947 12.5836 6.10561 12.6904 6.17361C12.7973 6.2416 12.8826 6.33864 12.9363 6.45336C12.9901 6.56807 13.01 6.69572 12.9938 6.82136C12.9776 6.94699 12.9259 7.06541 12.8448 7.16274L6.17831 15.1626C5.75698 15.6679 4.93634 15.3226 5.003 14.6679L5.47366 10.0693H1.6664C1.53973 10.0693 1.41569 10.0332 1.30881 9.96516C1.20194 9.89717 1.11664 9.80013 1.06292 9.68541C1.0092 9.5707 0.989273 9.44305 1.00548 9.31741C1.02168 9.19178 1.07334 9.07337 1.15441 8.97603L7.82094 0.9762ZM3.08971 8.73604H6.65497C6.69223 8.73604 6.72909 8.74385 6.76315 8.75897C6.79721 8.77409 6.82773 8.79618 6.85273 8.82382C6.87773 8.85145 6.89666 8.88403 6.9083 8.91943C6.91993 8.95483 6.92402 8.99228 6.92029 9.02937L6.55164 12.6326L10.9095 7.40273H7.34429C7.30702 7.40273 7.27016 7.39492 7.2361 7.3798C7.20204 7.36468 7.17152 7.34259 7.14652 7.31495C7.12152 7.28732 7.10259 7.25474 7.09096 7.21934C7.07932 7.18394 7.07523 7.14649 7.07896 7.10941L7.44762 3.50681L3.08971 8.73604Z" fill="black" stroke="black" stroke-width="0.2"/>
</svg>
