<svg width="13" height="11" viewBox="0 0 13 11" fill="none" xmlns="http://www.w3.org/2000/svg">
<path d="M3.25 0C2.84375 0 2.4375 0.165 2.12063 0.471428C1.80375 0.777857 1.625 1.13929 1.625 1.57143V3.92857C1.19438 3.92857 0.8125 4.07786 0.479375 4.39214C0.14625 4.70643 0 5.08357 0 5.5V9.42857H1.08875L1.625 11H2.4375L2.99813 9.42857H10.0425L10.5625 11H11.375L11.9113 9.42857H13V5.5C13 5.08357 12.8456 4.71429 12.5206 4.39214C12.1956 4.07 11.8056 3.92857 11.375 3.92857V1.57143C11.375 1.13929 11.2125 0.785714 10.8794 0.471428C10.5462 0.157143 10.1562 0 9.75 0M3.25 1.57143H5.6875V3.92857H3.25M7.3125 1.57143H9.75V3.92857H7.3125M1.625 5.5H11.375V7.85714H1.625V5.5Z" fill="black"/>
</svg>
