<svg width="21" height="27" viewBox="0 0 21 27" fill="none" xmlns="http://www.w3.org/2000/svg">
<path d="M19.0049 12.3004C18.66 11.8503 18.24 11.4603 17.8501 11.0703C16.8453 10.1703 15.7055 9.52527 14.7457 8.58025C12.5111 6.39018 12.0162 2.77508 13.4409 0C12.0162 0.34501 10.7714 1.12503 9.70661 1.98006C5.82232 5.10015 4.2926 10.6053 6.12226 15.3304C6.18225 15.4804 6.24224 15.6304 6.24224 15.8255C6.24224 16.1555 6.01728 16.4555 5.71734 16.5755C5.3724 16.7255 5.01247 16.6355 4.72752 16.3955C4.6424 16.3242 4.57122 16.2377 4.51756 16.1405C2.82287 13.9954 2.55292 10.9203 3.69271 8.46024C1.18817 10.5003 -0.176583 13.9504 0.0183817 17.2055C0.108365 17.9555 0.198349 18.7055 0.453302 19.4556C0.663264 20.3556 1.06819 21.2556 1.51811 22.0506C3.13781 24.6457 5.9423 26.5058 8.95674 26.8808C12.1662 27.2858 15.6005 26.7008 18.0601 24.4807C20.8046 21.9906 21.7644 18.0005 20.3547 14.5804L20.1597 14.1904C19.8448 13.5004 19.0049 12.3004 19.0049 12.3004ZM14.2658 21.7506C13.8458 22.1106 13.156 22.5006 12.6161 22.6506C10.9364 23.2507 9.25669 22.4106 8.26687 21.4206C10.0515 21.0006 11.1163 19.6806 11.4313 18.3455C11.6862 17.1455 11.2063 16.1555 11.0114 15.0004C10.8314 13.8904 10.8614 12.9454 11.2663 11.9103C11.5513 12.4804 11.8512 13.0504 12.2111 13.5004C13.3659 15.0004 15.1806 15.6604 15.5705 17.7005C15.6305 17.9105 15.6605 18.1205 15.6605 18.3455C15.7055 19.5756 15.1656 20.9256 14.2658 21.7506Z" fill="black"/>
</svg>
