<svg width="50" height="50" viewBox="0 0 50 50" fill="none" xmlns="http://www.w3.org/2000/svg">
<rect x="16.667" y="13.334" width="18.3333" height="23.3333" fill="black"/>
<path d="M25.0003 4.16602C20.8799 4.16602 16.852 5.38787 13.426 7.67707C9.99993 9.96626 7.32967 13.22 5.75284 17.0268C4.17602 20.8336 3.76345 25.0225 4.56731 29.0637C5.37117 33.105 7.35535 36.8171 10.2689 39.7307C13.1825 42.6443 16.8947 44.6285 20.936 45.4324C24.9772 46.2362 29.1661 45.8237 32.9729 44.2468C36.7797 42.67 40.0334 39.9998 42.3226 36.5737C44.6118 33.1477 45.8337 29.1198 45.8337 24.9993C45.8337 22.2635 45.2948 19.5544 44.2478 17.0268C43.2009 14.4992 41.6663 12.2025 39.7317 10.268C37.7972 8.3334 35.5005 6.79883 32.9729 5.75186C30.4453 4.70489 27.7362 4.16602 25.0003 4.16602ZM20.8337 34.3743V15.6243L33.3337 24.9993L20.8337 34.3743Z" fill="white"/>
</svg>
