<svg width="15" height="15" viewBox="0 0 15 15" fill="none" xmlns="http://www.w3.org/2000/svg">
<path d="M12.375 5.48112C12.375 7.26645 11.3133 9.29644 10.1359 10.9757C9.0385 12.5407 7.91939 13.6926 7.72338 13.8944C7.71599 13.902 7.70991 13.9083 7.70519 13.9131L7.5 14.1176L7.29481 13.9131C7.29009 13.9083 7.28401 13.902 7.27662 13.8944C7.08061 13.6926 5.9615 12.5407 4.86413 10.9757C3.68666 9.29644 2.625 7.26645 2.625 5.48112C2.625 4.19389 3.13809 2.95895 4.05209 2.04808C4.96617 1.13715 6.20638 0.625 7.5 0.625C8.79362 0.625 10.0338 1.13715 10.9479 2.04808C11.8619 2.95895 12.375 4.19389 12.375 5.48112Z" stroke="black" stroke-width="1.25"/>
<path d="M6 5.5C6 6.32843 6.67157 7 7.5 7C8.32843 7 9 6.32843 9 5.5C9 4.67157 8.32843 4 7.5 4C6.67157 4 6 4.67157 6 5.5Z" fill="black"/>
</svg>
