<svg width="13" height="13" viewBox="0 0 13 13" fill="none" xmlns="http://www.w3.org/2000/svg">
<path d="M7.91875 7.75625C7.17535 7.69882 6.47699 7.37747 5.94976 6.85024C5.42253 6.32301 5.10118 5.62465 5.04375 4.88125L6.55 3.38125L3.16875 0L0 3.16875L0.04375 3.48125C0.425627 5.803 1.52586 7.94657 3.18965 9.61035C4.85343 11.2741 6.997 12.3744 9.31875 12.7562L9.6375 12.8062L12.8 9.63125L9.41875 6.25L7.91875 7.75625ZM9.20625 11.4688C7.263 11.0826 5.47824 10.128 4.07841 8.72594C2.67858 7.32388 1.72677 5.53761 1.34375 3.59375L3.16875 1.7625L4.7875 3.38125L3.79375 4.375V4.63125C3.79375 5.79157 4.25469 6.90437 5.07516 7.72484C5.89563 8.54531 7.00843 9.00625 8.16875 9.00625H8.425L9.41875 8.0125L11.0375 9.63125L9.20625 11.4688Z" fill="black"/>
</svg>
