<svg width="39" height="39" viewBox="0 0 39 39" fill="none" xmlns="http://www.w3.org/2000/svg">
<circle opacity="0.1" cx="19.9268" cy="19.499" r="19" fill="black"/>
<path d="M16.1011 10.3779H23.762C26.6804 10.3779 29.0516 12.7491 29.0516 15.6676V23.3284C29.0516 24.7313 28.4943 26.0767 27.5023 27.0687C26.5103 28.0607 25.1649 28.618 23.762 28.618H16.1011C13.1827 28.618 10.8115 26.2468 10.8115 23.3284V15.6676C10.8115 14.2647 11.3688 12.9192 12.3608 11.9272C13.3528 10.9352 14.6983 10.3779 16.1011 10.3779ZM15.9187 12.2019C15.048 12.2019 14.2129 12.5478 13.5972 13.1636C12.9814 13.7793 12.6355 14.6144 12.6355 15.4852V23.5108C12.6355 25.3257 14.1039 26.794 15.9187 26.794H23.9444C24.8151 26.794 25.6502 26.4481 26.266 25.8324C26.8817 25.2167 27.2276 24.3816 27.2276 23.5108V15.4852C27.2276 13.6703 25.7593 12.2019 23.9444 12.2019H15.9187ZM24.7196 13.5699C25.0219 13.5699 25.3119 13.6901 25.5257 13.9038C25.7395 14.1176 25.8596 14.4076 25.8596 14.7099C25.8596 15.0123 25.7395 15.3023 25.5257 15.5161C25.3119 15.7298 25.0219 15.85 24.7196 15.85C24.4172 15.85 24.1273 15.7298 23.9135 15.5161C23.6997 15.3023 23.5796 15.0123 23.5796 14.7099C23.5796 14.4076 23.6997 14.1176 23.9135 13.9038C24.1273 13.6901 24.4172 13.5699 24.7196 13.5699ZM19.9316 14.938C21.141 14.938 22.3008 15.4184 23.156 16.2735C24.0112 17.1287 24.4916 18.2886 24.4916 19.498C24.4916 20.7074 24.0112 21.8672 23.156 22.7224C22.3008 23.5776 21.141 24.058 19.9316 24.058C18.7222 24.058 17.5623 23.5776 16.7071 22.7224C15.852 21.8672 15.3715 20.7074 15.3715 19.498C15.3715 18.2886 15.852 17.1287 16.7071 16.2735C17.5623 15.4184 18.7222 14.938 19.9316 14.938ZM19.9316 16.762C19.2059 16.762 18.51 17.0502 17.9969 17.5633C17.4838 18.0764 17.1956 18.7723 17.1956 19.498C17.1956 20.2236 17.4838 20.9195 17.9969 21.4326C18.51 21.9457 19.2059 22.234 19.9316 22.234C20.6572 22.234 21.3531 21.9457 21.8662 21.4326C22.3793 20.9195 22.6676 20.2236 22.6676 19.498C22.6676 18.7723 22.3793 18.0764 21.8662 17.5633C21.3531 17.0502 20.6572 16.762 19.9316 16.762Z" fill="black"/>
</svg>
