<svg width="38" height="38" viewBox="0 0 38 38" fill="none" xmlns="http://www.w3.org/2000/svg">
<circle opacity="0.1" cx="19" cy="19" r="18.5" stroke="black"/>
<path d="M15.1724 9.87891H22.8333C25.7517 9.87891 28.1229 12.2501 28.1229 15.1685V22.8294C28.1229 24.2323 27.5656 25.5777 26.5736 26.5697C25.5816 27.5617 24.2362 28.119 22.8333 28.119H15.1724C12.254 28.119 9.88281 25.7478 9.88281 22.8294V15.1685C9.88281 13.7656 10.4401 12.4202 11.4321 11.4282C12.4241 10.4362 13.7695 9.87891 15.1724 9.87891ZM14.99 11.7029C14.1193 11.7029 13.2842 12.0488 12.6685 12.6645C12.0527 13.2803 11.7068 14.1154 11.7068 14.9861V23.0118C11.7068 24.8267 13.1751 26.295 14.99 26.295H23.0157C23.8864 26.295 24.7215 25.9491 25.3373 25.3334C25.953 24.7176 26.2989 23.8825 26.2989 23.0118V14.9861C26.2989 13.1712 24.8306 11.7029 23.0157 11.7029H14.99ZM23.7909 13.0709C24.0932 13.0709 24.3832 13.191 24.597 13.4048C24.8108 13.6186 24.9309 13.9086 24.9309 14.2109C24.9309 14.5133 24.8108 14.8032 24.597 15.017C24.3832 15.2308 24.0932 15.3509 23.7909 15.3509C23.4885 15.3509 23.1986 15.2308 22.9848 15.017C22.771 14.8032 22.6509 14.5133 22.6509 14.2109C22.6509 13.9086 22.771 13.6186 22.9848 13.4048C23.1986 13.191 23.4885 13.0709 23.7909 13.0709ZM19.0029 14.4389C20.2122 14.4389 21.3721 14.9194 22.2273 15.7745C23.0824 16.6297 23.5629 17.7896 23.5629 18.9989C23.5629 20.2083 23.0824 21.3682 22.2273 22.2234C21.3721 23.0785 20.2122 23.559 19.0029 23.559C17.7935 23.559 16.6336 23.0785 15.7784 22.2234C14.9233 21.3682 14.4428 20.2083 14.4428 18.9989C14.4428 17.7896 14.9233 16.6297 15.7784 15.7745C16.6336 14.9194 17.7935 14.4389 19.0029 14.4389ZM19.0029 16.2629C18.2772 16.2629 17.5813 16.5512 17.0682 17.0643C16.5551 17.5774 16.2668 18.2733 16.2668 18.9989C16.2668 19.7246 16.5551 20.4205 17.0682 20.9336C17.5813 21.4467 18.2772 21.735 19.0029 21.735C19.7285 21.735 20.4244 21.4467 20.9375 20.9336C21.4506 20.4205 21.7389 19.7246 21.7389 18.9989C21.7389 18.2733 21.4506 17.5774 20.9375 17.0643C20.4244 16.5512 19.7285 16.2629 19.0029 16.2629Z" fill="black"/>
</svg>
