<svg width="38" height="39" viewBox="0 0 38 39" fill="none" xmlns="http://www.w3.org/2000/svg">
<circle opacity="0.1" cx="18.9971" cy="19.499" r="19" fill="black"/>
<path d="M15.0392 12.0828C15.0389 12.5627 14.8467 13.0228 14.5047 13.362C14.1626 13.7011 13.6989 13.8915 13.2155 13.8913C12.732 13.8911 12.2685 13.7002 11.9268 13.3607C11.5851 13.0212 11.3933 12.5609 11.3936 12.081C11.3938 11.6011 11.5861 11.141 11.9281 10.8018C12.2701 10.4626 12.7338 10.2722 13.2173 10.2725C13.7007 10.2727 14.1643 10.4636 14.5059 10.8031C14.8476 11.1426 15.0394 11.6029 15.0392 12.0828ZM15.0939 15.2312H11.4482V26.5582H15.0939V15.2312ZM20.854 15.2312H17.2266V26.5582H20.8175V20.6142C20.8175 17.303 25.1649 16.9954 25.1649 20.6142V26.5582H28.765V19.3838C28.765 13.8017 22.3304 14.0098 20.8175 16.7511L20.854 15.2312Z" fill="black"/>
</svg>
