<svg width="38" height="38" viewBox="0 0 38 38" fill="none" xmlns="http://www.w3.org/2000/svg">
<circle opacity="0.1" cx="19" cy="19" r="18.5" stroke="black"/>
<path d="M15.0441 11.5838C15.0438 12.0637 14.8515 12.5238 14.5095 12.863C14.1675 13.2021 13.7038 13.3925 13.2203 13.3923C12.7369 13.392 12.2734 13.2012 11.9317 12.8617C11.59 12.5222 11.3982 12.0618 11.3984 11.582C11.3987 11.1021 11.591 10.6419 11.933 10.3028C12.275 9.9636 12.7387 9.7732 13.2222 9.77344C13.7056 9.77368 14.1691 9.96454 14.5108 10.304C14.8525 10.6435 15.0443 11.1039 15.0441 11.5838ZM15.0988 14.7322H11.4531V26.0592H15.0988V14.7322ZM20.8588 14.7322H17.2314V26.0592H20.8224V20.1152C20.8224 16.804 25.1698 16.4964 25.1698 20.1152V26.0592H28.7699V18.8848C28.7699 13.3027 22.3353 13.5108 20.8224 16.2521L20.8588 14.7322Z" fill="black"/>
</svg>
