<svg width="38" height="38" viewBox="0 0 38 38" fill="none" xmlns="http://www.w3.org/2000/svg">
<circle cx="19" cy="19" r="19" fill="black"/>
<path fill-rule="evenodd" clip-rule="evenodd" d="M25.7767 10.1175C26.0238 10.0135 26.2943 9.97758 26.5599 10.0136C26.8256 10.0496 27.0768 10.1561 27.2873 10.3222C27.4979 10.4882 27.6601 10.7076 27.757 10.9575C27.854 11.2075 27.8822 11.4789 27.8387 11.7435L25.5707 25.5005C25.3507 26.8275 23.8947 27.5885 22.6777 26.9275C21.6597 26.3745 20.1477 25.5225 18.7877 24.6335C18.1077 24.1885 16.0247 22.7635 16.2807 21.7495C16.5007 20.8825 20.0007 17.6245 22.0007 15.6875C22.7857 14.9265 22.4277 14.4875 21.5007 15.1875C19.1987 16.9255 15.5027 19.5685 14.2807 20.3125C13.2027 20.9685 12.6407 21.0805 11.9687 20.9685C10.7427 20.7645 9.60565 20.4485 8.67765 20.0635C7.42365 19.5435 7.48465 17.8195 8.67665 17.3175L25.7767 10.1175Z" fill="white"/>
</svg>
