<svg width="38" height="38" viewBox="0 0 38 38" fill="none" xmlns="http://www.w3.org/2000/svg">
<circle opacity="0.1" cx="19" cy="19" r="18.5" stroke="black"/>
<path fill-rule="evenodd" clip-rule="evenodd" d="M24.7767 11.1175C25.0238 11.0135 25.2943 10.9776 25.5599 11.0136C25.8256 11.0496 26.0768 11.1561 26.2873 11.3222C26.4979 11.4882 26.6601 11.7076 26.757 11.9575C26.854 12.2075 26.8822 12.4789 26.8387 12.7435L24.5707 26.5005C24.3507 27.8275 22.8947 28.5885 21.6777 27.9275C20.6597 27.3745 19.1477 26.5225 17.7877 25.6335C17.1077 25.1885 15.0247 23.7635 15.2807 22.7495C15.5007 21.8825 19.0007 18.6245 21.0007 16.6875C21.7857 15.9265 21.4277 15.4875 20.5007 16.1875C18.1987 17.9255 14.5027 20.5685 13.2807 21.3125C12.2027 21.9685 11.6407 22.0805 10.9687 21.9685C9.74265 21.7645 8.60565 21.4485 7.67765 21.0635C6.42365 20.5435 6.48465 18.8195 7.67665 18.3175L24.7767 11.1175Z" fill="black"/>
</svg>
