<svg width="38" height="38" viewBox="0 0 38 38" fill="none" xmlns="http://www.w3.org/2000/svg">
<circle opacity="0.1" cx="19" cy="19" r="18.5" stroke="black"/>
<path d="M26 11.9101C25.0831 10.9842 23.991 10.25 22.7875 9.75042C21.584 9.25081 20.2931 8.99574 18.99 9.00005C13.53 9.00005 9.08 13.4501 9.08 18.9101C9.08 20.6601 9.54 22.3601 10.4 23.8601L9 29.0001L14.25 27.6201C15.7 28.4101 17.33 28.8301 18.99 28.8301C24.45 28.8301 28.9 24.3801 28.9 18.9201C28.9 16.2701 27.87 13.7801 26 11.9101ZM18.99 27.1501C17.51 27.1501 16.06 26.7501 14.79 26.0001L14.49 25.8201L11.37 26.6401L12.2 23.6001L12 23.2901C11.1775 21.9771 10.7409 20.4593 10.74 18.9101C10.74 14.3701 14.44 10.6701 18.98 10.6701C21.18 10.6701 23.25 11.5301 24.8 13.0901C25.5676 13.8539 26.1759 14.7626 26.5896 15.7634C27.0033 16.7642 27.2142 17.8371 27.21 18.9201C27.23 23.4601 23.53 27.1501 18.99 27.1501ZM23.51 20.9901C23.26 20.8701 22.04 20.2701 21.82 20.1801C21.59 20.1001 21.43 20.0601 21.26 20.3001C21.09 20.5501 20.62 21.1101 20.48 21.2701C20.34 21.4401 20.19 21.4601 19.94 21.3301C19.69 21.2101 18.89 20.9401 17.95 20.1001C17.21 19.4401 16.72 18.6301 16.57 18.3801C16.43 18.1301 16.55 18.0001 16.68 17.8701C16.79 17.7601 16.93 17.5801 17.05 17.4401C17.17 17.3001 17.22 17.1901 17.3 17.0301C17.38 16.8601 17.34 16.7201 17.28 16.6001C17.22 16.4801 16.72 15.2601 16.52 14.7601C16.32 14.2801 16.11 14.3401 15.96 14.3301H15.48C15.31 14.3301 15.05 14.3901 14.82 14.6401C14.6 14.8901 13.96 15.4901 13.96 16.7101C13.96 17.9301 14.85 19.1101 14.97 19.2701C15.09 19.4401 16.72 21.9401 19.2 23.0101C19.79 23.2701 20.25 23.4201 20.61 23.5301C21.2 23.7201 21.74 23.6901 22.17 23.6301C22.65 23.5601 23.64 23.0301 23.84 22.4501C24.05 21.8701 24.05 21.3801 23.98 21.2701C23.91 21.1601 23.76 21.1101 23.51 20.9901Z" fill="black"/>
</svg>
